<svg version="1.1" id="Layer_1" xmlns="http://www.w3.org/2000/svg" xmlns:xlink="http://www.w3.org/1999/xlink" x="0px" y="0px"
	 width="100%" viewBox="0 0 1254 1254" enable-background="new 0 0 1254 1254" xml:space="preserve">
<path fill="#ADE989" opacity="1.000000" stroke="none" 
	d="
M762.663818,879.619629 
	C771.489929,881.268494 778.893066,885.638916 786.790710,888.642395 
	C793.633850,891.244873 800.395630,894.088135 807.065918,897.106567 
	C810.133850,898.494751 812.375488,898.266235 815.216003,896.279297 
	C863.078979,862.797241 899.108093,819.356506 922.683105,766.083496 
	C962.412292,676.306641 962.352539,585.997131 923.127197,496.055298 
	C901.039795,445.409943 867.269043,403.621613 823.467590,369.973663 
	C819.710876,367.087769 817.801575,364.029022 819.701050,359.327393 
	C822.646545,352.036560 826.754395,350.885071 833.105530,355.709167 
	C890.317688,399.165466 930.250549,455.190582 952.100342,523.431458 
	C981.990967,616.785706 973.619141,707.332581 928.077942,794.127747 
	C898.335327,850.813171 854.489075,894.093506 799.515015,926.450500 
	C736.077515,963.789124 667.820068,980.152283 594.420288,972.768127 
	C534.733948,966.763428 480.903595,944.855713 431.935150,910.515991 
	C331.160065,839.846191 276.483551,723.041016 288.026611,599.908813 
	C296.901886,505.234589 338.186523,426.900482 410.771149,365.258911 
	C414.830597,361.811462 419.131683,358.642853 423.389069,355.435730 
	C428.322174,351.719574 431.163116,351.791565 434.083832,355.529602 
	C438.175964,360.766937 437.834045,365.855621 433.127991,369.487701 
	C423.096558,377.229889 413.267517,385.230743 404.361053,394.253632 
	C317.632965,482.115265 286.166595,586.644287 313.131195,707.141235 
	C330.585541,785.139587 373.623688,847.371704 438.244110,894.617065 
	C442.878723,898.005615 446.611267,898.714539 451.667023,896.003174 
	C456.923431,893.184082 462.600708,891.149719 468.326660,888.475220 
	C470.271881,885.039856 472.989288,884.741150 476.438812,885.594177 
	C477.224243,885.433228 477.666290,885.207886 478.088257,884.949646 
	C489.016449,878.261475 498.980103,879.642151 510.249390,885.847046 
	C547.595520,906.409973 585.536987,925.890198 623.162842,945.949524 
	C626.664307,947.816223 629.284363,947.804016 632.765320,945.951538 
	C669.671448,926.311523 706.671875,906.848633 743.629761,887.305664 
	C745.228882,886.460083 746.667358,885.310913 748.461060,884.123962 
	C751.232544,882.175659 753.349548,879.847168 756.346680,878.834473 
	C758.412476,878.136597 760.450500,877.855164 762.663818,879.619629 
z"/>
<path fill="#C2F49C" opacity="1.000000" stroke="none" 
	d="
M622.902832,848.135376 
	C612.800049,831.064941 602.781494,814.365967 592.960571,797.551575 
	C579.384705,774.308289 588.480469,747.377197 613.272888,736.975159 
	C614.989563,736.255005 616.949463,736.192200 617.058167,733.261230 
	C617.866211,711.471558 629.340088,696.124329 647.196838,685.032532 
	C654.392578,680.562927 662.131897,676.976013 669.551697,672.857422 
	C677.910156,668.217773 685.679504,662.840149 691.226807,654.787659 
	C700.984558,640.623230 700.512390,623.277161 689.984558,609.655090 
	C685.023560,603.235962 678.741882,598.334961 672.091125,593.834656 
	C666.436707,590.008545 660.717773,586.270020 655.177795,582.283875 
	C632.071899,565.658813 620.234558,543.039246 619.915588,514.599426 
	C619.676392,493.271484 619.655457,471.935760 619.991333,450.610657 
	C620.073547,445.387329 618.131348,445.191498 614.244324,446.269684 
	C609.897034,447.475494 605.654053,448.941681 601.686462,451.099243 
	C595.034424,454.716553 588.110901,455.610413 580.980408,452.920776 
	C578.940002,452.151154 577.691589,452.537415 576.121887,453.818970 
	C562.312927,465.092834 548.456238,476.308289 534.571411,487.488647 
	C532.914246,488.823029 532.188293,490.343048 531.734680,492.449860 
	C529.914978,500.901459 521.794556,505.768372 513.484253,503.676514 
	C505.789185,501.739532 501.207642,494.145050 503.015717,486.323761 
	C504.905914,478.147430 512.299805,473.769531 521.060669,475.947540 
	C523.328796,476.511444 524.803101,476.004700 526.459839,474.640137 
	C539.704590,463.731018 552.957275,452.830627 566.313354,442.058838 
	C568.054199,440.654816 568.277405,439.329895 567.955017,437.367859 
	C567.049438,431.857635 568.294495,426.824432 571.475159,422.198212 
	C577.306335,413.716888 577.161072,405.138245 571.794495,396.450470 
	C568.511292,391.135498 567.119385,385.368408 569.014709,379.243011 
	C569.638672,377.226715 568.958374,376.184113 567.594482,375.013000 
	C553.943176,363.291382 540.265747,351.598877 526.734436,339.739929 
	C524.546509,337.822418 522.365540,338.709412 520.151855,338.624451 
	C512.956604,338.348267 507.102478,333.514435 505.992676,326.818024 
	C504.786072,319.537628 508.513641,312.802277 515.132324,310.303680 
	C522.076111,307.682343 529.819824,310.231750 533.443237,316.431702 
	C534.187683,317.705566 535.204956,319.282684 535.016785,320.561066 
	C534.062744,327.043274 538.683350,329.942200 542.667480,333.365936 
	C554.040833,343.139465 565.411621,352.916779 576.690186,362.799042 
	C578.877502,364.715515 580.701355,365.457306 583.729980,364.382568 
	C590.183838,362.092377 596.619629,363.295227 602.641479,366.211456 
	C619.686707,374.465881 636.615845,374.407959 653.622314,366.085480 
	C659.661255,363.130249 666.043396,362.253632 672.531616,364.597778 
	C674.657593,365.365906 676.128723,365.094574 677.882202,363.572968 
	C691.220703,351.998291 704.627014,340.500824 718.108032,329.092590 
	C719.966675,327.519775 720.524597,325.964722 720.519958,323.573975 
	C720.504089,315.342957 726.531128,309.419312 734.688049,309.275940 
	C742.809814,309.133179 749.544434,315.416870 749.867249,323.438721 
	C750.194824,331.578247 744.061279,338.693634 735.875610,338.448303 
	C731.642212,338.321411 729.095154,340.040741 726.274780,342.464294 
	C713.891113,353.105652 701.466248,363.700684 688.933411,374.165436 
	C686.618347,376.098511 685.709045,377.698761 686.644897,380.850372 
	C688.181641,386.025513 687.127808,391.170471 684.223877,395.711182 
	C678.114990,405.263306 678.811707,414.540283 684.804199,423.818970 
	C687.524170,428.030731 688.689941,432.708405 687.614014,437.664795 
	C687.128906,439.899261 688.068359,440.994263 689.599915,442.240875 
	C702.905823,453.071350 716.189941,463.928894 729.408020,474.866150 
	C731.171509,476.325348 732.696045,476.408539 734.840759,475.854370 
	C743.320007,473.663452 750.949585,478.363617 752.684875,486.601868 
	C754.379395,494.646362 749.367432,502.306946 741.396484,503.855804 
	C732.905579,505.505737 725.293091,500.627777 723.962830,492.310699 
	C723.573792,489.878235 722.444885,488.464630 720.710449,487.067627 
	C707.086670,476.095032 693.472168,465.110596 679.925537,454.043152 
	C678.208435,452.640350 676.852112,452.209290 674.619629,453.018707 
	C667.483948,455.606018 660.532898,454.575562 653.847473,451.186493 
	C649.080261,448.769867 644.164429,446.802399 638.847473,445.888947 
	C636.469055,445.480347 635.589050,446.069336 635.607788,448.618317 
	C635.784607,472.611694 635.144897,496.636658 636.173279,520.591003 
	C637.186707,544.196777 650.988403,560.542358 669.899109,573.162903 
	C680.281677,580.092041 691.125610,586.476074 699.406250,596.065857 
	C722.111389,622.360535 718.216614,657.589172 690.422974,678.508728 
	C682.788452,684.255066 674.235229,688.391541 665.824463,692.785522 
	C657.683105,697.038696 649.709717,701.498596 643.416077,708.431885 
	C637.761292,714.661438 634.286072,721.862000 633.054443,730.175171 
	C632.641479,732.962463 633.064514,734.397827 636.477783,735.265930 
	C665.882629,742.744324 677.839050,772.982300 662.092102,799.007446 
	C651.063049,817.235229 640.370300,835.666321 629.499939,853.990356 
	C629.114197,854.640747 629.044067,855.646912 627.616638,855.819458 
	C626.157654,853.453613 624.616394,850.954468 622.902832,848.135376 
z"/>
<path fill="#71D78A" opacity="1.000000" stroke="none" 
	d="
M621.621460,650.736694 
	C615.575745,665.122253 605.975403,676.106812 592.848938,683.917480 
	C583.358948,689.564453 573.077942,693.475037 562.696411,697.126648 
	C546.360413,702.872742 529.814453,708.125366 514.845337,717.134399 
	C500.349304,725.858521 488.448639,736.925232 482.844818,753.448853 
	C478.055389,767.571350 480.517853,780.800659 488.704407,792.949951 
	C493.257996,799.707764 498.483276,806.010010 503.314484,812.584717 
	C506.296417,816.642761 508.682892,821.106567 509.895264,825.978638 
	C515.947021,850.299011 532.052917,865.918152 554.060059,875.710022 
	C597.071167,894.847168 640.911865,896.896484 684.454468,878.100159 
	C717.011963,864.045898 739.395569,838.884644 752.862427,806.527893 
	C765.814880,775.407043 754.427979,748.039368 723.464172,732.421753 
	C713.215881,727.252747 702.500488,723.003113 691.958191,718.426331 
	C685.833618,715.767456 680.149841,712.402771 674.507690,708.398987 
	C678.515503,705.015503 681.935364,703.840210 686.923523,706.943298 
	C696.263245,712.753479 706.653992,716.584412 716.798462,720.821228 
	C723.578308,723.652832 730.096130,726.992188 736.258179,730.994751 
	C760.119934,746.494446 770.039490,771.329041 763.195862,798.988403 
	C757.834900,820.655029 745.395630,838.273682 730.526428,854.331665 
	C703.515869,883.501831 669.318115,896.537170 630.268188,898.097168 
	C598.484741,899.366760 568.305481,893.307129 540.512268,877.229126 
	C522.951416,867.070374 510.183807,853.014526 504.504883,833.112183 
	C501.716125,823.338440 496.462860,814.929321 489.922150,807.182007 
	C480.873932,796.464600 473.520508,784.877563 473.033813,770.195496 
	C472.277771,747.389709 483.657867,730.928406 500.749664,717.591797 
	C516.645996,705.187988 535.353394,698.505615 554.121643,692.040833 
	C565.616699,688.081177 577.122009,684.223999 587.696289,678.013306 
	C599.379639,671.151184 608.590393,662.135925 614.093445,649.167603 
	C617.287659,646.518494 619.554260,647.756775 621.621460,650.736694 
z"/>
<path fill="#BDF297" opacity="1.000000" stroke="none" 
	d="
M622.084839,651.335205 
	C619.476440,650.330566 617.445251,648.960754 614.634521,648.857544 
	C610.043579,645.513855 604.794006,644.292358 599.989746,642.174988 
	C588.909058,637.291565 577.681763,632.740662 566.145264,627.999390 
	C563.090515,629.291077 560.896729,628.411316 558.790527,626.088501 
	C557.676514,623.920593 555.740906,623.636047 554.102112,622.948181 
	C539.599182,616.860413 525.079102,610.813416 510.213531,604.586914 
	C507.126740,605.595276 504.545135,607.190002 501.114868,607.577515 
	C483.288849,613.554077 465.571320,618.597168 447.988861,624.074280 
	C432.772217,628.814331 417.530151,633.472900 402.261780,638.039124 
	C398.482697,639.169312 396.907898,641.447021 396.330811,645.043518 
	C394.833374,654.376160 392.888000,663.628845 391.226624,672.931274 
	C390.689270,675.940002 389.424133,678.600159 388.147949,681.677612 
	C383.676422,683.477112 380.294769,682.547546 377.324768,678.551208 
	C376.020844,676.796692 374.785889,675.606812 372.436829,675.580444 
	C374.965851,660.836060 377.590546,646.425964 380.199524,632.013000 
	C381.020721,627.476440 383.580780,624.622681 388.039520,623.267273 
	C425.279297,611.947021 462.518494,600.624390 499.718262,589.173828 
	C505.433594,587.414551 510.701599,587.706604 516.209106,590.010620 
	C551.661560,604.841797 587.192749,619.484924 622.631836,634.347717 
	C626.289185,635.881592 629.283936,636.072205 632.981506,634.373108 
	C644.917358,628.888611 657.027832,623.783081 669.089111,618.573242 
	C674.415405,616.272644 677.461975,617.620911 680.009644,623.265259 
	C682.125854,627.953735 680.970886,630.541626 675.688171,632.843750 
	C661.964478,638.824524 648.215027,644.747070 634.520447,650.793701 
	C630.535217,652.553284 626.611511,653.297668 622.084839,651.335205 
z"/>
<path fill="#C2F49C" opacity="1.000000" stroke="none" 
	d="
M523.021729,370.541016 
	C527.890259,372.113220 529.918396,375.256958 529.172485,379.839020 
	C528.496704,383.990540 525.650513,386.254364 521.552795,386.520447 
	C493.833160,388.320190 458.401886,373.789948 445.451721,342.604187 
	C435.645905,318.990417 442.225983,293.652710 462.632416,275.173706 
	C494.555115,246.266190 550.452515,246.379944 581.796021,275.763977 
	C594.622253,287.788361 601.784607,302.664062 600.946350,320.696442 
	C600.823547,323.337250 600.528564,326.058990 599.734497,328.559509 
	C598.419128,332.701569 594.301453,334.910767 590.223999,333.896179 
	C585.885925,332.816833 583.549744,329.740173 584.117126,325.424072 
	C586.846924,304.660889 576.735291,290.547455 560.361450,280.078308 
	C534.886108,263.789795 496.005096,267.315277 473.498260,287.487518 
	C452.782867,306.054016 452.342285,333.845123 472.609314,352.911682 
	C486.645325,366.116272 503.723511,370.950714 523.021729,370.541016 
z"/>
<path fill="#C2F49C" opacity="1.000000" stroke="none" 
	d="
M678.348267,272.365234 
	C711.001221,246.791519 759.472778,247.425568 791.180420,273.607025 
	C824.133972,300.817200 821.538635,346.909393 785.579468,372.025085 
	C770.450500,382.591949 753.446350,386.990204 735.143982,386.725555 
	C729.389099,386.642365 725.688354,382.929413 725.921021,377.826202 
	C726.130188,373.238586 729.741516,370.225433 735.331482,370.343567 
	C751.941895,370.694611 766.845703,366.055145 779.847473,355.561157 
	C802.327393,337.417145 803.710083,308.587738 783.036987,288.434387 
	C756.040955,262.116974 704.780945,264.178070 681.373840,292.557892 
	C673.848694,301.681702 670.094788,312.038544 671.329712,324.012848 
	C671.931946,329.852936 669.149292,333.625793 664.230164,334.038025 
	C659.260315,334.454498 655.691101,331.293701 655.049988,325.634186 
	C652.744751,305.283661 660.684204,288.957642 675.044250,275.200012 
	C676.004883,274.279602 677.063477,273.461487 678.348267,272.365234 
z"/>
<path fill="#C2F49C" opacity="1.000000" stroke="none" 
	d="
M560.307739,544.285889 
	C528.699585,563.341003 496.976532,563.676697 465.973816,544.671265 
	C423.849518,518.848145 424.027557,462.781891 465.708496,436.166321 
	C479.856934,427.131775 495.220398,422.541656 512.055359,423.068237 
	C518.166626,423.259430 521.979553,426.392944 521.972778,431.288513 
	C521.965820,436.250427 518.231873,439.268372 512.041443,439.278931 
	C490.792480,439.315155 472.878387,446.636841 459.994171,463.998871 
	C448.035980,480.113098 447.898926,499.055481 459.010468,515.750854 
	C482.530731,551.090515 542.761780,550.892944 566.032471,515.423950 
	C570.255188,508.987671 572.512329,501.979889 572.808044,494.303925 
	C573.025391,488.661255 576.408203,485.063538 581.229126,485.265442 
	C585.937622,485.462677 589.041321,488.959229 588.947571,494.499969 
	C588.627075,513.445312 579.950439,528.230103 565.815186,540.205200 
	C564.166870,541.601562 562.346924,542.795410 560.307739,544.285889 
z"/>
<path fill="#C1F49B" opacity="1.000000" stroke="none" 
	d="
M802.194458,502.834106 
	C809.541443,477.362640 792.981323,452.627258 767.198303,443.182648 
	C759.484558,440.357056 751.455811,439.068695 743.194153,439.204010 
	C736.804504,439.308655 733.361145,436.435181 733.287842,431.296875 
	C733.216919,426.324677 736.973328,423.143219 743.048035,423.018127 
	C765.281982,422.560089 784.618652,429.840973 800.553833,445.334625 
	C827.741028,471.768738 827.160339,511.121429 799.461670,537.030212 
	C769.370117,565.177246 717.228699,565.505127 687.010498,537.607483 
	C674.498169,526.056030 667.021790,511.974792 666.809937,494.595276 
	C666.744019,489.187439 669.899841,485.524567 674.504761,485.291504 
	C679.288269,485.049408 682.807495,488.665710 682.948364,494.342499 
	C683.276550,507.569550 689.377563,517.974609 698.952759,526.446960 
	C724.333923,548.904785 766.816528,547.101257 790.386230,522.734558 
	C795.792603,517.145447 799.802612,510.700745 802.194458,502.834106 
z"/>
<path fill="#BCF195" opacity="1.000000" stroke="none" 
	d="
M747.342407,604.916626 
	C741.199951,605.801392 736.027954,608.558167 730.698486,610.819275 
	C727.659058,612.108765 725.945557,611.859985 724.472839,608.618286 
	C719.211243,597.036743 719.939880,599.077026 729.745300,593.903564 
	C742.055847,587.408386 753.593567,587.800049 766.575806,592.062805 
	C799.764893,602.960266 833.304504,612.796387 866.760864,622.867798 
	C872.636597,624.636597 875.598145,627.920959 876.285339,634.066284 
	C877.005066,640.502625 878.529602,646.848877 879.697754,653.697144 
	C873.220764,655.446472 870.449280,660.971313 866.375122,665.510742 
	C863.762390,665.154236 863.268188,663.398804 862.840515,661.558228 
	C861.636292,656.374939 860.501770,651.177429 859.799683,645.898865 
	C859.229614,641.613464 857.535461,639.039062 852.787842,637.600708 
	C822.849487,628.530457 792.979980,619.229736 763.033752,610.180603 
	C760.963928,609.555176 758.868896,608.988342 756.580750,607.832520 
	C753.397278,606.755554 750.251221,606.856567 747.342407,604.916626 
z"/>
<path fill="#70D78B" opacity="1.000000" stroke="none" 
	d="
M558.397034,626.094849 
	C561.001587,625.736938 563.133240,626.568787 565.495178,627.763428 
	C560.750244,656.033081 540.722107,669.330994 516.186523,678.086975 
	C501.930481,683.174438 487.256317,687.117249 473.722992,694.143188 
	C457.251343,702.694519 443.275146,713.948792 434.486847,730.648193 
	C424.019806,750.537537 424.335754,770.198303 436.386444,789.451660 
	C441.002716,796.827026 446.706635,803.356018 452.178558,810.056335 
	C463.990082,824.519470 469.464447,841.282349 471.169342,859.642212 
	C471.976654,868.335876 472.288086,877.209778 476.419281,885.527527 
	C474.279114,886.489319 471.766632,887.304749 468.906799,888.149170 
	C465.427216,877.919434 464.441864,867.298157 463.309540,856.709229 
	C461.579956,840.535278 455.733154,826.169495 445.224609,813.642273 
	C438.060883,805.102478 430.805176,796.558716 426.030609,786.335632 
	C413.573456,759.662903 419.652069,730.135498 441.994476,707.542114 
	C457.699799,691.660339 477.409943,683.030762 498.100372,676.129028 
	C510.569305,671.969727 523.146851,668.157166 534.462036,661.142822 
	C547.528381,653.042847 555.734436,641.751709 558.397034,626.094849 
z"/>
<path fill="#B6EE90" opacity="1.000000" stroke="none" 
	d="
M865.624512,665.271484 
	C866.638428,663.518860 867.533997,662.090027 867.939209,660.533508 
	C869.439758,654.770447 873.249329,653.082153 879.211304,654.125916 
	C885.791931,686.723511 891.890747,719.287231 897.989746,751.850952 
	C898.817505,756.270203 899.179016,760.842834 900.569275,765.077576 
	C903.815063,774.964233 901.741699,783.631653 895.757385,791.760925 
	C894.183350,793.899231 892.924805,796.269714 891.261963,798.743896 
	C889.776794,799.536804 889.656006,798.722412 889.810669,797.616699 
	C888.068848,786.758179 886.107361,776.120422 884.054688,765.062866 
	C880.811890,763.535767 880.749023,761.187317 881.545410,758.099243 
	C883.093201,754.002380 881.304932,750.528564 880.710571,747.047119 
	C879.271179,738.615479 877.429443,730.252441 875.481628,721.531494 
	C872.431824,719.755493 873.041260,716.832886 872.302124,714.073242 
	C869.519897,699.533569 866.855469,685.398621 864.464050,671.212280 
	C864.121582,669.180969 863.908569,667.272339 865.624512,665.271484 
z"/>
<path fill="#70D689" opacity="1.000000" stroke="none" 
	d="
M548.934082,741.961670 
	C566.088867,729.403931 585.984070,724.348816 605.628357,717.726074 
	C605.505371,723.951843 603.173950,726.977722 597.350220,728.527222 
	C585.600281,731.653503 574.239258,736.063965 563.419922,741.748840 
	C555.511597,745.904053 548.383789,751.084167 542.692627,757.972961 
	C532.259216,770.602112 530.283691,784.562378 537.097351,799.520020 
	C544.521484,815.817688 557.742554,826.160339 573.306458,833.914062 
	C580.024292,837.260742 587.023865,840.224976 594.394592,841.484131 
	C600.057129,842.451477 602.695984,845.558838 604.335999,850.854919 
	C595.624268,850.596680 587.660034,847.864014 579.798157,844.995789 
	C564.042175,839.247498 550.104248,830.601135 539.408691,817.476257 
	C518.240112,791.499329 521.884033,762.442200 548.934082,741.961670 
z"/>
<path fill="#70D689" opacity="1.000000" stroke="none" 
	d="
M881.231628,757.724976 
	C883.665405,759.310608 882.579651,762.023315 883.857666,764.300659 
	C880.224731,766.432983 876.534607,768.334290 872.739075,769.994446 
	C849.701111,780.071533 827.421631,772.956909 814.595032,751.339233 
	C809.335083,742.474487 804.823059,733.176392 798.116638,725.195312 
	C785.441467,710.111145 768.627930,701.607727 750.619385,695.023560 
	C739.514465,690.963562 728.328308,687.127563 718.102173,681.066528 
	C716.898438,680.353088 713.732483,680.003967 716.044739,677.422913 
	C717.559875,675.731628 717.850830,671.784180 722.226807,674.517700 
	C732.736816,681.082703 744.565247,684.851440 756.159363,688.957031 
	C783.190247,698.529053 804.438232,714.707642 817.281616,740.910095 
	C818.741821,743.889099 820.534180,746.723511 822.359192,749.502319 
	C832.058533,764.270447 846.342712,769.683472 863.475037,765.221252 
	C869.658569,763.610657 875.266418,760.699646 881.231628,757.724976 
z"/>
<path fill="#B3ED8E" opacity="1.000000" stroke="none" 
	d="
M367.216644,792.407349 
	C366.433807,794.693176 365.976257,796.751404 365.518738,798.809631 
	C360.080597,789.383179 351.627686,781.848389 354.578156,768.628540 
	C360.514008,742.032288 364.846100,715.078003 369.978119,687.939209 
	C374.077576,685.881714 376.904541,687.442932 379.345856,690.598938 
	C380.910461,692.621582 381.897552,695.200134 384.752075,696.670654 
	C387.419220,701.128723 384.283844,704.457153 383.159851,708.461731 
	C379.353180,721.975342 377.505035,735.476379 375.001099,748.841492 
	C372.802063,760.578918 370.034760,772.225037 368.898315,784.545532 
	C370.092285,787.685425 369.958893,790.164795 367.216644,792.407349 
z"/>
<path fill="#71D689" opacity="1.000000" stroke="none" 
	d="
M873.901855,713.747314 
	C875.581482,715.986267 874.960266,718.284790 875.187134,720.829956 
	C863.486511,720.367004 854.763367,713.943848 847.011353,705.860657 
	C842.292175,700.939819 837.792114,695.817322 832.614929,691.343811 
	C823.542480,683.504578 813.134216,678.124146 801.865967,674.235352 
	C796.683594,672.446777 791.563782,670.476624 786.419495,668.578308 
	C762.713928,659.830383 750.115479,642.700928 748.004395,617.659546 
	C747.669128,613.681763 747.326416,609.704712 746.991577,605.252319 
	C749.862671,603.018555 752.586975,605.056580 755.652588,605.331543 
	C757.631958,610.650696 757.684937,615.986267 758.333435,621.229736 
	C760.801331,641.185913 773.294861,652.688721 790.918884,659.848999 
	C798.924072,663.101257 807.235229,665.526978 815.184937,668.950012 
	C825.524414,673.401917 834.947144,679.166260 842.843567,687.272217 
	C847.369934,691.918579 852.085999,696.377197 856.570374,701.064026 
	C860.296204,704.957825 864.445374,708.207947 869.564941,710.069702 
	C871.346069,710.717468 872.854797,711.665222 873.901855,713.747314 
z"/>
<path fill="#70D78B" opacity="1.000000" stroke="none" 
	d="
M383.149170,708.623108 
	C383.292328,705.171692 383.708008,701.533997 384.129395,697.474243 
	C383.198700,696.231201 383.008881,695.206665 383.486298,693.680298 
	C402.295410,673.294678 426.614075,664.364868 452.308624,658.074707 
	C458.606384,656.532959 464.755035,654.517822 470.867462,652.290771 
	C489.450226,645.520142 497.955414,631.844482 498.877686,612.694031 
	C498.988495,610.393616 498.627777,607.944702 501.187927,606.107666 
	C503.808533,604.066833 506.469360,603.817200 509.559906,604.263733 
	C507.979675,610.342957 508.468079,616.573975 507.500671,622.635010 
	C504.405304,642.028442 493.004242,654.238953 475.234283,661.252441 
	C464.828308,665.359436 453.976410,667.987549 443.194153,670.814941 
	C419.295929,677.081482 398.854401,688.759644 383.149170,708.623108 
z"/>
<path fill="#70D689" opacity="1.000000" stroke="none" 
	d="
M889.622192,797.577698 
	C890.255615,797.835876 890.480835,798.275940 890.854370,798.835083 
	C889.221191,804.716370 884.833191,806.149414 879.332336,806.952393 
	C864.705139,809.087585 850.267273,812.208435 836.247498,817.061829 
	C810.255371,826.059631 789.824890,842.433167 773.546936,864.282349 
	C769.899963,869.177612 765.728638,873.712341 762.943970,879.544373 
	C758.030029,879.606873 753.953003,882.368591 749.118042,883.881470 
	C759.287109,870.868774 768.807007,856.963928 780.227356,844.597778 
	C801.632507,821.419861 828.710449,808.881714 859.216553,802.973450 
	C869.178650,801.044067 879.212769,799.486877 889.622192,797.577698 
z"/>
<path fill="#72D68B" opacity="1.000000" stroke="none" 
	d="
M692.522583,834.524780 
	C680.154480,844.149231 666.443176,849.572021 650.760681,851.781555 
	C652.673584,846.635254 654.978394,843.417480 660.467957,842.011719 
	C677.291748,837.703308 691.484070,829.128296 700.721436,813.850098 
	C713.260864,793.110596 708.091980,770.708679 687.344421,758.140076 
	C681.036072,754.318604 675.622131,750.359863 673.171936,743.415588 
	C706.809082,752.607422 727.990417,785.281128 705.862915,819.939148 
	C702.346741,825.446472 697.837769,830.135803 692.522583,834.524780 
z"/>
<path fill="#72D68B" opacity="1.000000" stroke="none" 
	d="
M367.261597,792.658264 
	C367.447906,790.263733 368.004456,787.892517 368.785767,785.240112 
	C393.489899,797.687805 414.725403,823.930237 411.255585,857.398438 
	C407.395355,854.467712 404.217834,852.067017 403.959747,846.550049 
	C403.014374,826.338074 392.455322,811.278625 377.115875,799.101807 
	C374.134430,796.735107 370.802277,794.810242 367.261597,792.658264 
z"/>
<path fill="#BDF297" opacity="1.000000" stroke="none" 
	d="
M385.211273,693.668030 
	C384.710999,694.836853 384.451508,695.623108 384.163544,696.730774 
	C381.170807,697.194519 379.630768,695.291443 378.368164,693.013855 
	C376.739563,690.076050 374.466309,688.068909 370.541199,687.699707 
	C369.987640,687.300598 370.010834,687.006042 370.416687,686.706543 
	C370.629486,686.290466 370.611420,685.891174 370.729248,684.907837 
	C370.655029,684.044739 370.613770,683.742432 370.853210,683.207520 
	C376.411926,680.201050 381.347504,681.426880 386.307343,685.242188 
	C388.289307,688.457336 386.396240,690.799622 385.211273,693.668030 
z"/>
<path fill="#B3ED8E" opacity="1.000000" stroke="none" 
	d="
M386.723755,685.958740 
	C381.582642,684.573059 376.754944,683.503357 371.385651,682.999512 
	C370.978516,682.443054 370.991943,681.888184 371.140900,681.086060 
	C373.493896,680.392700 372.140015,678.686829 372.233887,677.286499 
	C372.047791,676.550903 372.060150,676.090576 372.209869,675.438721 
	C374.173401,672.663147 376.561279,673.080872 377.577240,675.384644 
	C379.350464,679.405396 382.958771,680.293884 386.639832,681.929504 
	C388.232971,683.231384 388.206085,684.508118 386.723755,685.958740 
z"/>
<path fill="#BDF297" opacity="1.000000" stroke="none" 
	d="
M371.896973,677.379456 
	C373.015289,678.231689 373.341614,679.427795 371.589783,680.698364 
	C371.437164,679.808411 371.597839,678.778076 371.896973,677.379456 
z"/>
<path fill="#B3ED8E" opacity="1.000000" stroke="none" 
	d="
M370.647522,684.584473 
	C370.844635,684.719666 370.824158,685.115479 370.725616,686.100525 
	C370.013092,686.141235 370.258118,685.488831 370.647522,684.584473 
z"/>
<path fill="#09130E" opacity="1.000000" stroke="none" 
	d="
M463.738892,911.334045 
	C461.760956,910.143372 459.698669,909.414124 463.347595,907.992493 
	C472.650543,904.368042 481.867859,900.522156 491.092224,896.699097 
	C493.081055,895.874878 494.825714,895.850342 496.787811,896.891846 
	C533.837708,916.558716 570.912903,936.177856 607.974854,955.822021 
	C608.206909,955.945007 608.327393,956.278687 608.507996,956.524780 
	C581.208069,960.446106 507.044373,937.341370 463.738892,911.334045 
z"/>
<path fill="#09130E" opacity="1.000000" stroke="none" 
	d="
M660.991211,955.955017 
	C656.239929,956.398315 651.935974,956.797180 647.667053,957.192871 
	C647.149780,955.458069 648.501038,955.399658 649.240356,955.008789 
	C685.615601,935.778259 722.006042,916.576416 758.390259,897.362671 
	C760.175842,896.419739 761.913025,895.416992 764.042297,896.297424 
	C774.320068,900.547424 784.602356,904.786560 795.467407,909.270813 
	C753.716858,934.743164 709.366760,950.456299 660.991211,955.955017 
z"/>
<path fill="#07110D" opacity="1.000000" stroke="none" 
	d="
M590.143494,378.646179 
	C593.353088,378.525940 595.715759,379.837067 598.123901,380.948547 
	C618.067200,390.153473 638.001221,390.179138 657.959595,380.986511 
	C659.762878,380.155914 661.627014,379.328491 663.552063,378.921356 
	C666.490662,378.299927 669.239807,378.905579 671.096558,381.550964 
	C672.852844,384.053223 672.363220,386.612701 670.939941,389.067230 
	C667.217590,395.486420 664.398560,402.136475 664.727905,409.797607 
	C665.012878,416.427521 666.669434,422.611359 670.158325,428.262787 
	C672.048523,431.324585 674.113770,434.541260 670.964539,437.739563 
	C667.848755,440.903931 664.212585,439.598724 660.808960,437.844574 
	C641.994873,428.148468 622.598694,427.277039 602.758911,434.158936 
	C599.477844,435.297058 596.424255,437.079224 593.230896,438.485229 
	C590.126892,439.852051 587.008911,440.123566 584.472534,437.420868 
	C581.910767,434.691132 583.093384,431.932312 584.789856,429.226807 
	C592.781006,416.483002 592.894165,403.602051 585.638672,390.464417 
	C582.071655,384.005524 583.368835,380.656921 590.143494,378.646179 
z"/>
<path fill="#08120D" opacity="1.000000" stroke="none" 
	d="
M619.090820,799.182251 
	C607.007446,793.529785 601.200928,783.286926 603.011963,771.294922 
	C604.567932,760.991699 613.440735,752.326599 624.074036,750.725708 
	C634.659912,749.132019 644.315918,753.641296 649.576111,762.634766 
	C655.080200,772.045288 654.231873,783.009155 647.338440,791.552063 
	C640.629456,799.866211 630.487610,802.698242 619.090820,799.182251 
z"/>
<path fill="#07110D" opacity="1.000000" stroke="none" 
	d="
M386.305786,686.507446 
	C386.571259,684.964294 386.828644,683.833313 387.041443,682.351135 
	C389.065826,671.148621 391.905457,660.372009 392.965912,649.423035 
	C393.853302,640.261108 397.846191,636.565247 406.592041,634.095093 
	C438.111023,625.192810 469.340057,615.263916 501.100983,605.821289 
	C501.326111,609.237183 501.187195,612.559143 500.922119,615.871033 
	C499.368103,635.289307 489.526276,648.274353 471.055450,654.831299 
	C462.421265,657.896301 453.611969,660.298889 444.762939,662.541199 
	C422.453156,668.194275 402.242035,677.671143 385.319763,694.042419 
	C385.724915,691.731689 384.131317,688.975769 386.305786,686.507446 
z"/>
<path fill="#06110D" opacity="1.000000" stroke="none" 
	d="
M874.211792,713.570312 
	C863.107117,711.637268 855.350952,704.385498 848.377014,696.174622 
	C837.663391,683.560730 824.481018,674.625854 809.019714,668.927002 
	C802.779175,666.626831 796.513062,664.393250 790.303955,662.011108 
	C785.483154,660.161621 780.885620,657.846191 776.535034,655.029053 
	C766.897095,648.788452 760.241211,640.361328 757.656372,629.064697 
	C755.919495,621.474182 754.314209,613.830627 755.494507,605.757507 
	C789.721985,615.944031 823.519043,626.336792 857.341553,636.645935 
	C859.684387,637.360107 860.840332,638.355042 861.243286,640.955994 
	C862.457764,648.794067 864.051636,656.573364 865.732666,664.690918 
	C868.492065,679.407227 871.021301,693.807251 873.533569,708.210266 
	C873.819031,709.846985 874.009155,711.500305 874.211792,713.570312 
z"/>
<path fill="#B6EE90" opacity="1.000000" stroke="none" 
	d="
M877.490967,651.489624 
	C877.511658,651.481262 877.470215,651.498047 877.490967,651.489624 
z"/>
</svg>
