<svg xmlns="http://www.w3.org/2000/svg" viewBox="0 0 64 64">
  <rect width="64" height="64" rx="15" fill="#07120f"/>
  <path d="M12 22.5 32 12l20 10.5v20L32 53 12 42.5Z" fill="#10231d" stroke="#b7ff9c" stroke-width="2.8" stroke-linejoin="round"/>
  <path d="M18 28.5c5.5-4.5 10.5-4.5 14 0 3.5-4.5 8.5-4.5 14 0M18 36c5.5-4.5 10.5-4.5 14 0 3.5-4.5 8.5-4.5 14 0" fill="none" stroke="#74f2a1" stroke-width="2.4" stroke-linecap="round"/>
  <path d="M32 10v11.5" fill="none" stroke="#b7ff9c" stroke-width="2.7" stroke-linecap="round"/>
  <path d="M32 22c-4.8-3.5-10.1-2.2-11.5 1.8M32 22c4.8-3.5 10.1-2.2 11.5 1.8" fill="none" stroke="#b7ff9c" stroke-width="2.7" stroke-linecap="round"/>
  <circle cx="20.5" cy="24.7" r="3" fill="#b7ff9c"/><circle cx="43.5" cy="24.7" r="3" fill="#b7ff9c"/>
  <path d="M32 31c-3.7 0-6.7 2.8-6.7 6.3 0 4.6 6.7 10.7 6.7 10.7s6.7-6.1 6.7-10.7C38.7 33.8 35.7 31 32 31Z" fill="#b7ff9c"/>
  <circle cx="32" cy="37.1" r="2.5" fill="#07120f"/>
</svg>
